<svg width="180" height="180" viewBox="0 0 180 180" fill="none" xmlns="http://www.w3.org/2000/svg">
<path d="M146.25 54.8438H122.344V52.0312C122.344 34.1719 107.859 19.6875 90 19.6875C72.1406 19.6875 57.6562 34.1719 57.6562 52.0312V54.8438H33.75C30.6387 54.8438 28.125 57.3574 28.125 60.4688V154.688C28.125 157.799 30.6387 160.312 33.75 160.312H146.25C149.361 160.312 151.875 157.799 151.875 154.688V60.4688C151.875 57.3574 149.361 54.8438 146.25 54.8438ZM70.3125 52.0312C70.3125 41.1504 79.1191 32.3438 90 32.3438C100.881 32.3438 109.688 41.1504 109.688 52.0312V54.8438H70.3125V52.0312ZM139.219 147.656H40.7812V67.5H57.6562V82.9688C57.6562 83.7422 58.2891 84.375 59.0625 84.375H68.9062C69.6797 84.375 70.3125 83.7422 70.3125 82.9688V67.5H109.688V82.9688C109.688 83.7422 110.32 84.375 111.094 84.375H120.938C121.711 84.375 122.344 83.7422 122.344 82.9688V67.5H139.219V147.656Z" fill="#4ECB71"/>
</svg>
